PathFileType	4	(X/Y/Z)	D:\TRACE\spotREDO_2-26-24\spot_Both_Motion_3_4-v60.trc
DataRate	CameraRate	NumFrames	NumMarkers	Units	OrigDataRate	OrigDataStartFrame	OrigNumFrames
100.00	100.00	      31	9	mm	100.00	5251	      7000
Frame#	Time	front left toe			Front right toe			aft left toe			aft right toe			Arm			FL body			FR body			AL Body			AR Body			
		X1	Y1	Z1	X2	Y2	Z2	X3	Y3	Z3	X4	Y4	Z4	X5	Y5	Z5	X6	Y6	Z6	X7	Y7	Z7	X8	Y8	Z8	X9	Y9	Z9	

5251	52.500	-149.05322	99.20479	-459.43518	242.17816	8.67417	-476.67926	-116.48762	21.21884	153.71561	267.89243	23.52286	49.89097	57.96461	691.13422	-766.50366	-21.73363	561.43384	-518.97058	131.77184	567.93097	-527.21350	19.87199	559.97119	364.24725	167.32004	555.47241	358.96991	
5252	52.510	-150.19783	99.35713	-457.37805	242.69566	8.56749	-476.45248	-116.74148	20.73033	153.77788	267.79074	23.43841	49.99780	56.16599	691.29236	-766.99689	-21.57952	561.11151	-519.26898	133.39729	567.06433	-527.49225	18.42686	559.88043	363.96823	165.72777	555.23828	359.24261	
5253	52.520	-151.29126	98.46046	-454.94830	242.68144	8.47617	-476.42996	-116.99442	20.39549	153.69760	267.74039	23.49083	50.07917	54.84118	691.45807	-766.82104	-21.69532	560.68506	-519.37323	133.41420	566.59619	-527.55249	17.02281	559.90814	363.82840	164.11391	555.20648	359.08859	
5254	52.530	-152.82164	96.67851	-453.01401	242.75594	8.66730	-476.30133	-116.94573	20.36075	153.72949	267.77655	23.53091	50.11943	53.11022	692.11578	-767.28009	-22.01114	560.27112	-519.58594	133.06102	565.65381	-527.24445	16.30523	559.89844	363.76025	163.43724	555.04272	359.09518	
5255	52.540	-154.77750	92.97709	-451.76367	242.60434	8.96580	-476.30704	-116.70262	20.66764	153.81563	267.90158	23.47961	50.09623	51.98575	692.34290	-767.21417	-22.96057	559.94446	-519.56714	131.79689	565.40417	-527.30811	15.69272	559.96881	363.62247	162.92386	555.06250	359.12125	
5256	52.550	-157.42220	86.06826	-451.03876	242.30534	9.48453	-476.56500	-116.46912	20.91629	153.75681	268.06735	23.45022	50.07918	51.34270	692.41882	-766.88928	-24.74334	559.65918	-519.40796	130.17451	565.16187	-527.59247	15.36872	560.04449	363.63290	162.76550	555.18237	359.04852	
5257	52.560	-159.19998	77.00726	-450.03668	241.39931	9.67016	-477.14914	-116.22092	21.10123	153.86624	268.24094	23.46387	49.96592	51.26802	692.53540	-766.77136	-26.79893	559.63464	-519.25464	126.47073	565.93079	-527.88721	15.25644	560.17322	363.68964	162.78844	555.36292	358.68610	
5258	52.570	-160.84937	66.50902	-449.17471	240.61589	10.16919	-477.22614	-115.86670	21.06027	154.18846	268.35803	23.52418	49.80939	51.66657	692.65363	-766.68701	-28.96620	559.55219	-519.04688	126.04029	565.13165	-527.50378	15.26703	560.39874	363.84064	162.65369	555.70178	358.26755	
5259	52.580	-162.22862	54.79557	-447.54086	240.43782	10.75658	-477.47906	-115.62150	21.08904	154.42932	268.51541	23.61939	49.60877	52.56517	692.61664	-766.43256	-31.61680	559.58972	-518.78424	123.44903	565.56934	-527.99609	15.08068	560.62994	364.02826	162.41457	556.06604	357.91666	
5260	52.590	-163.89886	43.05469	-445.68289	240.14070	11.02209	-477.69467	-115.50427	21.03915	154.62230	268.58328	23.69466	49.41986	53.66948	692.43994	-765.97906	-33.91998	559.68622	-518.63318	121.11632	566.01892	-528.24329	14.63389	560.74420	364.09296	161.85255	556.40009	357.59476	
5261	52.600	-165.48724	32.02942	-443.51013	240.05995	11.53742	-477.52164	-115.40470	20.98980	154.73218	268.56485	23.75088	49.31150	54.52207	692.41724	-765.94342	-36.10119	559.45709	-518.59253	119.14277	565.80481	-527.87903	13.79264	560.82202	364.03070	161.14388	556.61963	357.48489	
5262	52.610	-166.85826	21.36543	-441.38361	239.93831	12.00873	-477.36951	-115.50103	20.87291	154.82988	268.63596	23.74239	49.26305	55.62602	692.13928	-765.83972	-38.11226	559.31519	-518.54926	117.05175	565.86932	-528.42371	12.35881	561.03064	363.96387	159.71478	556.94739	357.30780	
5263	52.620	-168.13591	16.70393	-442.97781	239.96609	11.98954	-477.29605	-115.63098	20.67241	154.85904	268.47211	23.80331	49.21727	56.61285	691.81067	-765.54749	-39.87138	559.07501	-518.77759	115.24600	565.92273	-528.65802	10.49621	561.28564	363.85477	158.12489	557.58661	357.12830	
5264	52.630	-169.58031	16.40549	-442.21548	239.87607	12.15142	-477.26727	-115.95229	20.13866	154.95544	268.54688	23.61925	49.33466	57.05640	691.70087	-765.55713	-41.45541	559.78046	-519.07123	113.83945	566.00519	-528.34674	8.58520	561.57550	363.76700	156.16417	557.40118	357.19922	
5265	52.640	-169.53751	16.33083	-440.90790	239.29660	13.42507	-476.86517	-116.40604	19.31081	154.64867	268.16116	24.09532	48.96713	57.02977	691.77905	-765.53247	-42.83959	560.70386	-519.08704	112.42520	567.00940	-528.62970	6.40130	561.66614	363.56766	153.82254	557.31183	357.27087	
5266	52.650	-169.32442	16.76911	-441.31607	238.59839	13.53438	-477.16675	-117.03699	19.48294	154.64795	267.25717	24.84118	48.98664	56.52778	692.34766	-765.12207	-44.18321	561.93268	-519.42181	111.05309	567.33038	-528.83990	4.40097	562.20044	363.37305	151.66661	557.34357	357.33328	
5267	52.660	-169.46159	17.10088	-441.44244	239.07678	13.89096	-476.40359	-117.04885	18.99360	154.66035	266.92480	25.20369	49.50543	56.07093	692.88953	-764.69592	-44.82007	562.65240	-519.71637	110.39234	567.26404	-528.44659	1.84477	562.88916	363.06238	149.00595	557.45282	357.05771	
5268	52.670	-169.11391	17.01014	-441.51526	239.50775	13.72371	-476.40784	-117.40527	18.67487	154.62172	266.94760	25.19831	49.49698	55.64820	692.99982	-764.69299	-45.50960	563.11627	-520.12469	109.88633	567.40656	-528.42188	-0.47136	563.23322	362.82651	146.56917	557.66309	357.13989	
5269	52.680	-168.72343	16.99032	-441.81409	239.61882	13.76571	-476.39294	-117.57084	18.41749	154.56802	266.80615	25.28817	49.65576	55.35973	692.86633	-764.66486	-46.32938	563.77161	-520.70520	109.20749	567.64832	-528.71783	-2.69057	563.62323	362.42041	144.57616	557.79126	357.16357	
5270	52.690	-168.66875	16.99608	-441.80679	239.65532	13.80358	-476.41223	-117.64490	18.14369	154.52611	266.76080	25.45402	49.80188	55.11180	692.97174	-765.04431	-46.58525	563.99969	-520.81256	108.49245	568.29626	-529.41614	-4.46175	563.94635	362.00900	142.58072	557.84644	356.63074	
5271	52.700	-168.84297	17.21512	-441.74780	239.99997	14.12092	-476.25345	-117.69151	18.05919	154.47636	266.80304	25.52457	49.85932	54.94725	693.41888	-765.36249	-47.46063	564.35938	-521.25519	107.77523	568.66724	-529.69592	-5.82180	564.09821	361.72110	141.35449	558.13214	356.59708	
5272	52.710	-168.97107	17.26438	-441.68826	240.03619	14.45189	-476.15384	-117.65845	18.08180	154.46188	266.81381	25.52727	49.84998	54.65435	693.81293	-765.56702	-48.42319	564.64667	-521.90961	107.05809	568.64014	-529.79401	-7.09392	564.34155	361.25800	140.19824	558.43268	356.23932	
5273	52.720	-169.11133	17.20230	-441.70886	239.82106	14.95382	-476.18796	-117.61909	17.89940	154.40918	266.79831	25.45597	49.82222	54.41756	693.95636	-765.67291	-49.06181	564.72388	-522.02399	105.89938	568.90308	-530.65430	-8.00277	564.51514	360.78925	139.18367	558.81146	355.66873	
5274	52.730	-169.08990	17.10805	-441.71786	239.72772	15.08610	-476.35535	-117.54942	17.80376	154.32574	266.79382	25.42193	49.66415	54.20277	693.95447	-765.99017	-50.79398	565.19342	-523.22437	105.25951	568.90558	-530.92798	-8.41085	564.70557	360.40967	138.71230	559.03052	355.27618	
5275	52.740	-169.16179	17.10236	-441.68814	239.90274	15.35597	-476.20374	-117.50805	17.80247	154.37061	266.80579	25.40375	49.61888	54.02720	694.02258	-766.00476	-50.89919	564.54156	-522.87390	104.15144	569.13733	-531.59650	-9.00991	565.01367	359.83914	138.58693	559.01843	354.85986	
5276	52.750	-169.38695	17.24128	-441.56613	239.89442	15.38892	-476.22714	-117.44640	17.92387	154.40236	266.83701	25.36572	49.48314	53.93128	694.17365	-766.23425	-51.88604	564.73315	-523.41357	103.41486	569.33398	-532.05145	-9.22758	565.16034	359.36707	137.92412	559.44104	353.98907	
5277	52.760	-169.44009	17.35493	-441.45938	239.82129	15.44611	-476.34525	-117.30128	18.16074	154.39717	266.83588	25.36266	49.36665	53.56381	694.36328	-766.41870	-52.96305	565.04425	-523.95898	102.29473	569.66840	-532.65002	-9.23313	565.39294	359.02341	137.76073	560.01624	353.41162	
5278	52.770	-169.44577	17.34965	-441.42636	239.78291	15.42495	-476.27194	-117.20331	18.22735	154.46611	266.92496	25.30781	49.25053	53.54981	694.38647	-766.58301	-53.55954	564.82941	-524.20544	101.67527	569.75128	-533.16205	-9.35445	565.80688	358.52637	137.91611	560.52716	352.92581	
5279	52.780	-169.41640	17.30504	-441.39548	239.52180	15.70024	-476.42438	-117.11524	18.17819	154.49159	266.95264	25.22126	49.08218	53.72213	694.27753	-766.67523	-54.25159	564.78308	-524.64227	100.85909	569.83459	-533.86401	-9.44834	566.08429	358.07602	137.86436	560.69775	352.60034	
5280	52.790	-169.40570	17.32018	-441.36401	239.51485	15.94269	-476.42422	-117.00620	18.13525	154.45985	267.00925	25.24070	48.92007	53.96364	694.16229	-766.81689	-55.06557	564.87500	-525.32867	100.26491	569.76709	-534.41626	-9.59325	566.44537	357.43811	137.85622	560.98553	351.59891	
5281	52.800	-169.41978	17.34365	-441.39688	239.50690	16.13799	-476.50250	-116.87157	18.16663	154.43478	267.03824	25.23235	48.83731	54.22186	694.02191	-766.95367	-55.45956	564.68695	-525.89130	99.71854	569.85321	-535.09961	-9.62496	566.65997	356.82166	137.65218	561.37518	351.11081	
